# xmcd
#
# Track frame offsets: 
#        150
#        19970
#        31620
#        46431
#        61356
#        75985
#        85872
#        98143
#        108267
#        123276
#
# Disc length: 1834 seconds
#
# Revision: 1
# Processed by: cddbd v1.5.2PL0 Copyright (c) Steve Scherf et al.
# Submitted via: ExactAudioCopyFreeDBPlugin 1.0
#
DISCID=6d07280a
DTITLE=Lera Lynn - Have you met Lera Lynn?
DYEAR=2012
DGENRE=Americana
TTITLE0=Whiskey
TTITLE1=Happy Ever After
TTITLE2=Gasoline
TTITLE3=Fire and Undertow
TTITLE4=Bobby, Baby
TTITLE5=Good Hearted Man
TTITLE6=Paper Anchor
TTITLE7=I Tried to Leave You
TTITLE8=For the Ride
TTITLE9=You and Me Alone
EXTD=
EXTT0=
EXTT1=
EXTT2=
EXTT3=
EXTT4=
EXTT5=
EXTT6=
EXTT7=
EXTT8=
EXTT9=
PLAYORDER=
